<svg class="svg-icon" style="width: 1em; height: 1em;vertical-align: middle;fill: #00FF88;overflow: hidden;" viewBox="0 0 1024 1024" version="1.1" xmlns="http://www.w3.org/2000/svg"><path d="M646.361829 262.616302h-274.831014c-9.161034 0-16.286282 7.125249-16.286282 16.286282V352.190855H661.630219v-73.288271c0-9.161034-7.125249-16.286282-15.26839-16.286282zM508.946322 504.874751c-18.322068 0-33.590457 15.26839-33.590457 33.590458 0 18.322068 15.26839 33.590457 33.590457 33.590457s33.590457-15.26839 33.590457-33.590457c0-18.322068-15.26839-33.590457-33.590457-33.590458z"  /><path d="M508.946322 0c-280.93837 0-508.946322 228.007952-508.946322 508.946322s228.007952 508.946322 508.946322 508.946322 508.946322-228.007952 508.946322-508.946322-228.007952-508.946322-508.946322-508.946322z m294.170974 764.437376c0 16.286282-13.232604 29.518887-29.518886 29.518886H244.294235c-16.286282 0-29.518887-13.232604-29.518887-29.518886V504.874751h231.06163v47.840955c0 27.483101 22.393638 49.87674 49.87674 49.876739h25.447316c27.483101 0 49.87674-22.393638 49.876739-49.876739V504.874751h231.061631v259.562625z m0-272.795229H561.87674v60.055666c0 22.393638-18.322068 39.697813-39.697814 39.697813h-25.447316c-22.393638 0-39.697813-18.322068-39.697813-39.697813v-60.055666H214.775348V381.709742c0-16.286282 13.232604-29.518887 29.518887-29.518887h85.502982v-73.288271c0-23.411531 19.33996-42.751491 42.751491-42.751491h273.813121c23.411531 0 42.751491 19.33996 42.751491 42.751491V352.190855H773.59841c16.286282 0 29.518887 13.232604 29.518886 29.518887v109.932405z"  /></svg>